<svg width="48" height="30" viewBox="0 0 48 30" fill="none" xmlns="http://www.w3.org/2000/svg">
<path d="M24.05 0C20.9672 0 17.9146 0.387987 15.0665 1.14181C12.2184 1.89563 9.63054 3.00052 7.45068 4.3934C3.04826 7.20644 0.575012 11.0218 0.575012 15C0.575012 21.63 7.31234 27.255 16.6319 29.25C17.8057 29.37 18.1813 28.905 18.1813 28.5C18.1813 28.155 18.1813 27.21 18.1813 25.965C11.6787 26.865 10.2937 23.955 10.2937 23.955C9.21381 22.215 7.68794 21.75 7.68794 21.75C5.55171 20.82 7.85226 20.85 7.85226 20.85C10.1998 20.955 11.4439 22.395 11.4439 22.395C13.4863 24.675 16.9371 24 18.2752 23.64C18.4864 22.665 19.0968 22.005 19.7541 21.63C14.5426 21.255 9.07296 19.965 9.07296 14.25C9.07296 12.585 9.96501 11.25 11.4909 10.185C11.2561 9.81 10.4345 8.25 11.7256 6.225C11.7256 6.225 13.6975 5.82 18.1813 7.755C20.0358 7.425 22.0546 7.26 24.05 7.26C26.0454 7.26 28.0642 7.425 29.9188 7.755C34.4025 5.82 36.3744 6.225 36.3744 6.225C37.6655 8.25 36.8439 9.81 36.6091 10.185C38.135 11.25 39.0271 12.585 39.0271 14.25C39.0271 19.98 33.5339 21.24 28.299 21.615C29.1441 22.08 29.9188 22.995 29.9188 24.39V28.5C29.9188 28.905 30.2944 29.385 31.4916 29.25C40.8112 27.24 47.525 21.63 47.525 15C47.525 13.0302 46.9178 11.0796 45.7381 9.25975C44.5584 7.43986 42.8292 5.78628 40.6493 4.3934C38.4695 3.00052 35.8816 1.89563 33.0335 1.14181C30.1854 0.387987 27.1328 0 24.05 0Z" fill="white"/>
</svg>
