<svg width="31" height="36" viewBox="0 0 31 36" fill="none" xmlns="http://www.w3.org/2000/svg">
<path d="M8.44748 7.94486C7.9091 6.81348 6.70963 6.421 5.76848 7.06827C4.82734 7.71554 4.50085 9.15739 5.03929 10.2888C5.12558 10.4702 5.23155 10.6369 5.35437 10.7847L11.7664 20.8772L13.2611 23.1416L8.87394 16.2362C8.33556 15.1048 7.13609 14.7124 6.19494 15.3596C5.25379 16.0069 4.92731 17.4487 5.46574 18.5801C5.55203 18.7615 5.65801 18.9283 5.78083 19.0761L10.168 25.9814L13.6546 31.261C16.6943 35.4539 21.7248 35.2249 25.2119 31.5718C27.216 29.4541 28.5048 26.5267 28.8344 23.3436C29.049 20.5146 29.2831 13.1166 29.2831 13.1166C29.1816 11.3782 27.5399 10.0932 27.3283 10.991L24.6073 17.5128L22.736 14.6906L15.2493 3.18854C14.7109 2.05716 13.5115 1.66468 12.5703 2.31195C11.6292 2.95922 11.3027 4.40107 11.8411 5.53245C11.9274 5.71385 12.0334 5.88061 12.1562 6.02839L14.5185 9.7467L18.09 15.4146L10.629 3.59746C10.0906 2.46608 8.89112 2.0736 7.94997 2.72087C7.00882 3.36814 6.68233 4.80999 7.22071 5.94137C7.307 6.12277 7.41298 6.28953 7.5358 6.43738L15.6933 19.1465" fill="#FCEA2B"/>
<path d="M8.44748 7.94486C7.9091 6.81348 6.70963 6.421 5.76848 7.06827C4.82734 7.71554 4.50085 9.15739 5.03929 10.2888C5.12558 10.4702 5.23155 10.6369 5.35437 10.7847L11.7664 20.8772L13.2611 23.1416L8.87394 16.2362C8.33556 15.1048 7.13609 14.7124 6.19494 15.3596C5.25379 16.0069 4.92731 17.4487 5.46574 18.5801C5.55203 18.7615 5.65801 18.9283 5.78083 19.0761L10.168 25.9814L13.6546 31.261C16.6943 35.4539 21.7248 35.2249 25.2119 31.5718C27.216 29.4541 28.5048 26.5267 28.8344 23.3436C29.049 20.5146 29.2831 13.1166 29.2831 13.1166C29.1816 11.3782 27.5399 10.0932 27.3283 10.991L24.6073 17.5128L22.736 14.6906L15.2493 3.18854C14.7109 2.05716 13.5115 1.66468 12.5703 2.31195C11.6292 2.95922 11.3027 4.40107 11.8411 5.53245C11.9274 5.71385 12.0334 5.88061 12.1562 6.02839L14.5185 9.7467L18.09 15.4146L10.629 3.59746C10.0906 2.46608 8.89112 2.0736 7.94997 2.72087C7.00882 3.36814 6.68233 4.80999 7.22071 5.94137C7.307 6.12277 7.41298 6.28953 7.5358 6.43738L15.6933 19.1465" stroke="black" stroke-width="3.03841" stroke-linecap="round" stroke-linejoin="round"/>
<path d="M4.56385 23.7396C4.56385 25.4548 5.53519 26.8428 6.73555 26.8428" stroke="black" stroke-width="3.03841" stroke-miterlimit="10" stroke-linecap="round" stroke-linejoin="round"/>
<path d="M2 23.4488C2 27.189 4.11804 30.2156 6.73555 30.2156" stroke="black" stroke-width="3.03841" stroke-miterlimit="10" stroke-linecap="round" stroke-linejoin="round"/>
<path d="M23.2397 9.27949C23.2397 7.56421 22.2683 6.1763 21.068 6.1763" stroke="black" stroke-width="3.03841" stroke-miterlimit="10" stroke-linecap="round" stroke-linejoin="round"/>
<path d="M25.8035 9.57027C25.8035 5.83003 23.6855 2.80344 21.068 2.80344" stroke="black" stroke-width="3.03841" stroke-miterlimit="10" stroke-linecap="round" stroke-linejoin="round"/>
</svg>
