<svg width="33" height="16" viewBox="0 0 33 16" fill="none" xmlns="http://www.w3.org/2000/svg">
<path d="M31.4516 1.03867C31.6666 0.440358 31.4516 0 30.4174 0H26.995C26.1234 0 25.7225 0.378133 25.5075 0.799345C25.5075 0.799345 23.7643 4.29828 21.3006 6.56708C20.5046 7.22283 20.1385 7.43343 19.7027 7.43343C19.4878 7.43343 19.1566 7.22283 19.1566 6.62451V1.03867C19.1566 0.320695 18.9125 0 18.192 0H12.8114C12.2653 0 11.9399 0.335055 11.9399 0.646177C11.9399 1.32586 13.1717 1.48381 13.2995 3.39841V7.5531C13.2995 8.46253 13.102 8.63006 12.6662 8.63006C11.5041 8.63006 8.68016 5.11677 7.00673 1.09611C6.66971 0.315909 6.33851 0 5.46112 0H2.03872C1.06255 0 0.86499 0.378133 0.86499 0.799345C0.86499 1.54604 2.0271 5.25558 6.2746 10.157C9.10433 13.5027 13.0904 15.3168 16.7161 15.3168C18.8951 15.3168 19.1624 14.9147 19.1624 14.2207C19.1624 11.0233 18.9648 10.7218 20.0572 10.7218C20.5627 10.7218 21.4343 10.9324 23.468 12.5454C25.7922 14.46 26.1757 15.3168 27.4772 15.3168H30.8996C31.8758 15.3168 32.3697 14.9147 32.085 14.1202C31.4342 12.4497 27.0356 9.01298 26.8381 8.78323C26.3326 8.24714 26.4778 8.00781 26.8381 7.52916C26.8439 7.52438 31.0217 2.68044 31.4516 1.03867Z" fill="#FCFBFB"/>
</svg>
